# File created by Blade
# Date/Time:  Tue Apr 07 20:29:34 2015
# Frame Rate: 120.000 fps
#------------------------------------------------------
:FULLY-SPECIFIED
:DEGREES
1263
root 3.656877 33.872885 -5.356910 -4.574736 4.187173 -29.704964
Spine 6.754926 -2.072966 29.647251
Head 4.882351 -5.619216 -1.273975
LeftShoulder -16.747294 43.966944 11.536546
LeftArm 51.615059 15.472921 -70.595691
LeftForeArm -2.975340 -0.000000 20.857946
LeftHand 7.435293 0.000000 -7.778555
LeftHandThumb1 -26.253704 0.000000 33.147579
RightShoulder -3.195308 -9.186653 -5.992363
RightArm 12.366241 -23.644870 72.986360
RightForeArm 25.199965 -0.000000 19.731357
RightHand 3.624941 -0.000000 24.452367
RightHandThumb1 -24.326973 -0.000000 -32.862282
LeftUpLeg -5.244325 2.211069 25.180312
LeftLeg 15.612439 -0.000000 -0.000000
LeftFoot -14.240767 -2.250009 -30.586299
LeftToeBase 8.382752 -0.000000 -0.000000
RightUpLeg -74.433069 0.754597 3.739392
RightLeg 153.384949 -0.000000 -0.000000
RightFoot 49.887494 20.110665 -4.507753
RightToeBase 30.669129 -0.000000 -0.000000
1264
root 3.623984 33.879901 -5.359216 -4.357191 4.124199 -29.854337
Spine 6.614367 -1.901156 29.533094
Head 4.748366 -5.621885 -1.060382
LeftShoulder -16.945432 44.078221 11.354913
LeftArm 51.508160 15.242187 -70.863213
LeftForeArm -3.103610 -0.000000 21.150267
LeftHand 7.486102 -0.000000 -7.710391
LeftHandThumb1 -26.253704 0.000000 33.147579
RightShoulder -3.270244 -9.112280 -6.107382
RightArm 12.114654 -23.788345 73.471648
RightForeArm 25.077827 -0.000000 19.690592
RightHand 3.395180 -0.000000 24.513439
RightHandThumb1 -24.326973 -0.000000 -32.862282
LeftUpLeg -5.459884 2.346333 25.408342
LeftLeg 15.683753 -0.000000 -0.000000
LeftFoot -14.220639 -2.424836 -30.712623
LeftToeBase 8.717530 -0.000000 -0.000000
RightUpLeg -74.257139 1.077225 4.118578
RightLeg 153.705313 -0.000000 -0.000000
RightFoot 49.757675 20.027959 -4.394675
RightToeBase 30.844726 -0.000000 -0.000000
1265
root 3.593401 33.887642 -5.361608 -4.218661 4.074789 -30.043157
Spine 6.558455 -1.758789 29.488003
Head 4.561921 -5.769272 -0.847761
LeftShoulder -17.034103 44.105279 11.250214
LeftArm 51.358183 15.042985 -71.154604
LeftForeArm -3.170357 -0.000000 21.378293
LeftHand 7.527925 0.000000 -7.756036
LeftHandThumb1 -26.253704 0.000000 33.147579
RightShoulder -3.341032 -9.052711 -6.265721
RightArm 11.903971 -23.915477 73.969901
RightForeArm 25.241605 -0.000000 19.586810
RightHand 3.290453 -0.000000 24.328419
RightHandThumb1 -24.326973 -0.000000 -32.862282
LeftUpLeg -5.644369 2.440725 25.683993
LeftLeg 15.810082 -0.000000 -0.000000
LeftFoot -14.169221 -2.639011 -30.892794
LeftToeBase 8.858095 -0.000000 -0.000000
RightUpLeg -74.033186 1.362037 4.473407
RightLeg 153.979259 -0.000000 -0.000000
RightFoot 49.775376 19.996832 -4.181320
RightToeBase 30.537889 -0.000000 -0.000000
1266
root 3.565970 33.894884 -5.365895 -4.114015 4.049700 -30.189081
Spine 6.557794 -1.666378 29.397101
Head 4.302177 -5.823787 -0.669450
LeftShoulder -17.160105 44.108415 11.120071
LeftArm 51.281849 14.889685 -71.365973
LeftForeArm -3.265126 -0.000000 21.499796
LeftHand 7.556465 -0.000000 -7.686424
LeftHandThumb1 -26.253704 0.000000 33.147579
RightShoulder -3.366272 -9.033250 -6.389297
RightArm 11.758573 -23.934231 74.435877
RightForeArm 25.289445 -0.000000 19.450493
RightHand 3.235896 -0.000000 24.207794
RightHandThumb1 -24.326973 -0.000000 -32.862282
LeftUpLeg -5.828896 2.489331 25.910710
LeftLeg 15.971473 -0.000000 -0.000000
LeftFoot -14.089674 -2.837244 -31.041876
LeftToeBase 8.841488 -0.000000 -0.000000
RightUpLeg -73.816234 1.586467 4.814010
RightLeg 154.226741 -0.000000 -0.000000
RightFoot 49.673650 20.051004 -4.188332
RightToeBase 30.452415 -0.000000 -0.000000
1267
root 3.534762 33.903124 -5.370569 -4.034973 4.036432 -30.373044
Spine 6.587617 -1.588842 29.338670
Head 3.996187 -5.849666 -0.481357
LeftShoulder -17.297531 44.120121 11.010628
LeftArm 51.315664 14.824022 -71.449294
LeftForeArm -3.356910 -0.000000 21.545987
LeftHand 7.565408 -0.000000 -7.705098
LeftHandThumb1 -26.253704 0.000000 33.147579
RightShoulder -3.356310 -9.023822 -6.505263
RightArm 11.594237 -23.926116 74.868956
RightForeArm 25.349061 -0.000000 19.405561
RightHand 3.163633 -0.000000 24.103659
RightHandThumb1 -24.326973 -0.000000 -32.862282
LeftUpLeg -6.024989 2.557803 26.187939
LeftLeg 16.178402 -0.000000 -0.000000
LeftFoot -13.995598 -3.074078 -31.166848
LeftToeBase 8.971164 -0.000000 -0.000000
RightUpLeg -73.617252 1.793132 5.142426
RightLeg 154.428185 -0.000000 -0.000000
RightFoot 49.807497 19.934027 -3.865181
RightToeBase 30.352094 -0.000000 -0.000000
